<svg width="49" height="56" viewBox="0 0 49 56" fill="none" xmlns="http://www.w3.org/2000/svg">
<path fill-rule="evenodd" clip-rule="evenodd" d="M45.6306 21.7704C45.0273 16.3253 42.8828 11.2292 39.4921 7.30559C35.4496 2.6279 29.9669 0 24.25 0C18.5331 0 13.0504 2.6279 9.00792 7.30559C5.61716 11.2292 3.47271 16.3253 2.86942 21.7704C1.13093 22.7146 0 24.2493 0 25.9822C0 28.8521 3.10203 31.1786 6.92857 31.1786C7.99118 31.1786 8.99792 30.9992 9.89788 30.6785C11.1494 32.0277 13.2319 32.9107 15.5893 32.9107C16.8513 32.9107 18.0345 32.6576 19.0536 32.2155C20.0727 32.6576 21.2558 32.9107 22.5178 32.9107C24.1564 32.9107 25.662 32.4841 26.8482 31.771C28.0344 32.4841 29.54 32.9107 31.1786 32.9107C33.8605 32.9107 36.1865 31.7679 37.3381 30.0961C38.5088 30.7748 39.9773 31.1786 41.5714 31.1786C45.398 31.1786 48.5 28.8521 48.5 25.9822C48.5 24.2493 47.3691 22.7145 45.6306 21.7704ZM20.7857 17.3214C20.7857 19.2347 19.2347 20.7857 17.3214 20.7857C15.4081 20.7857 13.8571 19.2347 13.8571 17.3214C13.8571 15.4081 15.4081 13.8571 17.3214 13.8571C19.2347 13.8571 20.7857 15.4081 20.7857 17.3214ZM31.1786 20.7857C33.0918 20.7857 34.6428 19.2347 34.6428 17.3214C34.6428 15.4081 33.0918 13.8571 31.1786 13.8571C29.2653 13.8571 27.7143 15.4081 27.7143 17.3214C27.7143 19.2347 29.2653 20.7857 31.1786 20.7857ZM43.3036 50.2321C43.3036 51.1888 42.5281 51.9643 41.5714 51.9643C40.6148 51.9643 39.8393 51.1888 39.8393 50.2321C39.8393 49.2755 40.6148 48.5 41.5714 48.5C42.5281 48.5 43.3036 49.2755 43.3036 50.2321ZM41.5714 43.3036C43.4847 43.3036 45.0357 41.7526 45.0357 39.8393C45.0357 37.926 43.4847 36.375 41.5714 36.375C39.6581 36.375 38.1071 37.926 38.1071 39.8393C38.1071 41.7526 39.6581 43.3036 41.5714 43.3036ZM25.9821 53.6964C25.9821 54.653 25.2066 55.4285 24.25 55.4285C23.2933 55.4285 22.5178 54.653 22.5178 53.6964C22.5178 52.7398 23.2933 51.9643 24.25 51.9643C25.2066 51.9643 25.9821 52.7398 25.9821 53.6964ZM24.25 46.7678C26.1633 46.7678 27.7143 45.2168 27.7143 43.3035C27.7143 41.3903 26.1633 39.8393 24.25 39.8393C22.3367 39.8393 20.7857 41.3903 20.7857 43.3035C20.7857 45.2168 22.3367 46.7678 24.25 46.7678ZM8.66069 48.5C8.66069 49.4566 7.88518 50.2321 6.92854 50.2321C5.97191 50.2321 5.1964 49.4566 5.1964 48.5C5.1964 47.5433 5.97191 46.7678 6.92854 46.7678C7.88518 46.7678 8.66069 47.5433 8.66069 48.5ZM6.92855 41.5714C8.84182 41.5714 10.3928 40.0204 10.3928 38.1071C10.3928 36.1938 8.84182 34.6428 6.92855 34.6428C5.01528 34.6428 3.46427 36.1938 3.46427 38.1071C3.46427 40.0204 5.01528 41.5714 6.92855 41.5714Z" fill="#8B5CF6"/>
</svg>
